<mxfile host="app.diagrams.net" modified="2021-03-28T10:44:53.974Z" agent="5.0 (Windows NT 10.0; Win64; x64) AppleWebKit/537.36 (KHTML, like Gecko) Chrome/89.0.4389.90 Safari/537.36" etag="qmQnZn2O_ZLSiBb3pors" version="14.5.3" type="github">
  <diagram id="kZXmdMQdcmGoR9qFtgSu" name="Page-1">
    <mxGraphModel dx="1038" dy="548" grid="1" gridSize="10" guides="1" tooltips="1" connect="1" arrows="1" fold="1" page="1" pageScale="1" pageWidth="827" pageHeight="1169" math="0" shadow="0">
      <root>
        <mxCell id="0" />
        <mxCell id="1" parent="0" />
        <mxCell id="jE88kFOpzxl6R78gh7M6-1" value="Telepes lerak vizjeget" style="shape=umlFrame;whiteSpace=wrap;html=1;width=78;height=40;" parent="1" vertex="1">
          <mxGeometry x="30" y="30" width="570" height="470" as="geometry" />
        </mxCell>
        <mxCell id="jE88kFOpzxl6R78gh7M6-3" value="alt" style="shape=umlFrame;whiteSpace=wrap;html=1;" parent="1" vertex="1">
          <mxGeometry x="85" y="180" width="485" height="290" as="geometry" />
        </mxCell>
        <mxCell id="jE88kFOpzxl6R78gh7M6-5" value="t: Telepes" style="shape=umlLifeline;perimeter=lifelinePerimeter;container=1;collapsible=0;recursiveResize=0;rounded=0;shadow=0;strokeWidth=1;" parent="1" vertex="1">
          <mxGeometry x="242.07" y="60" width="110" height="480" as="geometry" />
        </mxCell>
        <mxCell id="jE88kFOpzxl6R78gh7M6-6" value="" style="points=[];perimeter=orthogonalPerimeter;rounded=0;shadow=0;strokeWidth=1;" parent="jE88kFOpzxl6R78gh7M6-5" vertex="1">
          <mxGeometry x="50" y="100" width="10" height="330" as="geometry" />
        </mxCell>
        <mxCell id="jE88kFOpzxl6R78gh7M6-7" value="a: Aszteroida" style="shape=umlLifeline;perimeter=lifelinePerimeter;container=1;collapsible=0;recursiveResize=0;rounded=0;shadow=0;strokeWidth=1;" parent="1" vertex="1">
          <mxGeometry x="437.07" y="60" width="100" height="470" as="geometry" />
        </mxCell>
        <mxCell id="jE88kFOpzxl6R78gh7M6-8" value="" style="html=1;points=[];perimeter=orthogonalPerimeter;" parent="jE88kFOpzxl6R78gh7M6-7" vertex="1">
          <mxGeometry x="45" y="110" width="10" height="250" as="geometry" />
        </mxCell>
        <mxCell id="jE88kFOpzxl6R78gh7M6-9" value="" style="endArrow=classic;html=1;dashed=1;strokeColor=#000000;exitX=-0.29;exitY=0.999;exitDx=0;exitDy=0;exitPerimeter=0;" parent="1" source="jE88kFOpzxl6R78gh7M6-6" target="jE88kFOpzxl6R78gh7M6-22" edge="1">
          <mxGeometry width="50" height="50" relative="1" as="geometry">
            <mxPoint x="310" y="530" as="sourcePoint" />
            <mxPoint x="80" y="470" as="targetPoint" />
          </mxGeometry>
        </mxCell>
        <mxCell id="jE88kFOpzxl6R78gh7M6-10" value="[teljesen at van furva &amp;amp;&amp;amp; ureges a magja]" style="text;html=1;strokeColor=none;fillColor=none;align=center;verticalAlign=middle;whiteSpace=wrap;rounded=0;" parent="1" vertex="1">
          <mxGeometry x="152.07" y="250" width="130" height="40" as="geometry" />
        </mxCell>
        <mxCell id="jE88kFOpzxl6R78gh7M6-11" value="2. AddMag(v: Vizjeg)" style="html=1;verticalAlign=bottom;endArrow=block;entryX=0;entryY=0;" parent="1" source="jE88kFOpzxl6R78gh7M6-6" target="jE88kFOpzxl6R78gh7M6-8" edge="1">
          <mxGeometry relative="1" as="geometry">
            <mxPoint x="297.07" y="390.0000000000001" as="sourcePoint" />
          </mxGeometry>
        </mxCell>
        <mxCell id="jE88kFOpzxl6R78gh7M6-12" value="" style="html=1;verticalAlign=bottom;endArrow=open;dashed=1;endSize=8;" parent="1" source="jE88kFOpzxl6R78gh7M6-8" target="jE88kFOpzxl6R78gh7M6-6" edge="1">
          <mxGeometry relative="1" as="geometry">
            <mxPoint x="300" y="338" as="targetPoint" />
            <Array as="points">
              <mxPoint x="430" y="350" />
            </Array>
          </mxGeometry>
        </mxCell>
        <mxCell id="jE88kFOpzxl6R78gh7M6-17" value="true" style="text;html=1;align=center;verticalAlign=middle;resizable=0;points=[];autosize=1;" parent="1" vertex="1">
          <mxGeometry x="374" y="330" width="40" height="20" as="geometry" />
        </mxCell>
        <mxCell id="jE88kFOpzxl6R78gh7M6-18" value="" style="endArrow=open;html=1;dashed=1;exitX=0.4;exitY=1;exitDx=0;exitDy=0;exitPerimeter=0;endFill=0;" parent="1" source="jE88kFOpzxl6R78gh7M6-8" target="jE88kFOpzxl6R78gh7M6-6" edge="1">
          <mxGeometry width="50" height="50" relative="1" as="geometry">
            <mxPoint x="472.07" y="450" as="sourcePoint" />
            <mxPoint x="522.07" y="400" as="targetPoint" />
          </mxGeometry>
        </mxCell>
        <mxCell id="jE88kFOpzxl6R78gh7M6-19" value="&lt;span&gt;[nincs teljesen atfurva ||&lt;br&gt;&amp;nbsp;nem ureges a mag]&lt;/span&gt;" style="text;html=1;align=center;verticalAlign=middle;resizable=0;points=[];autosize=1;" parent="1" vertex="1">
          <mxGeometry x="120" y="380" width="140" height="30" as="geometry" />
        </mxCell>
        <mxCell id="jE88kFOpzxl6R78gh7M6-20" value="false" style="text;html=1;align=center;verticalAlign=middle;resizable=0;points=[];autosize=1;" parent="1" vertex="1">
          <mxGeometry x="380" y="400" width="40" height="20" as="geometry" />
        </mxCell>
        <mxCell id="jE88kFOpzxl6R78gh7M6-21" value="" style="endArrow=none;dashed=1;html=1;dashPattern=1 3;strokeWidth=2;" parent="1" edge="1">
          <mxGeometry width="50" height="50" relative="1" as="geometry">
            <mxPoint x="565" y="371" as="sourcePoint" />
            <mxPoint x="85" y="371" as="targetPoint" />
            <Array as="points" />
          </mxGeometry>
        </mxCell>
        <mxCell id="jE88kFOpzxl6R78gh7M6-22" value="Player" style="shape=umlLifeline;participant=umlActor;perimeter=lifelinePerimeter;whiteSpace=wrap;html=1;container=1;collapsible=0;recursiveResize=0;verticalAlign=top;spacingTop=36;outlineConnect=0;" parent="1" vertex="1">
          <mxGeometry x="60" y="90" width="20" height="420" as="geometry" />
        </mxCell>
        <mxCell id="jE88kFOpzxl6R78gh7M6-23" value="1. AnyagVisszatesz(v: Vizjeg)" style="verticalAlign=bottom;startArrow=none;endArrow=block;startSize=8;shadow=0;strokeWidth=1;startFill=0;" parent="1" source="jE88kFOpzxl6R78gh7M6-22" edge="1">
          <mxGeometry relative="1" as="geometry">
            <mxPoint x="162.07" y="130" as="sourcePoint" />
            <mxPoint x="291" y="160" as="targetPoint" />
          </mxGeometry>
        </mxCell>
      </root>
    </mxGraphModel>
  </diagram>
</mxfile>
